<svg width="292" height="70" viewBox="0 0 292 70" fill="none" xmlns="http://www.w3.org/2000/svg">
<mask id="mask0_708_80" style="mask-type:alpha" maskUnits="userSpaceOnUse" x="0" y="0" width="170" height="70">
<path d="M109.652 69.9998L109.652 54.8303L109.652 15.1696L110.092 0H140.368C149.918 0 157.125 1.86139 161.987 5.58416C166.85 9.27762 169.282 14.8178 169.282 22.2047C169.282 29.3571 166.865 34.7801 162.031 38.4735C157.198 42.1377 150.123 43.9697 140.807 43.9697H131.975V54.8303V69.9998H109.652ZM137.819 14.7299H131.975V30.559H137.38C140.368 30.559 142.609 29.9287 144.103 28.6683C145.597 27.4078 146.344 25.3999 146.344 22.6444C146.344 19.8597 145.612 17.8517 144.147 16.6206C142.711 15.3601 140.602 14.7299 137.819 14.7299Z" fill="#38BB94"/>
<path d="M109.652 69.9998L109.652 54.8303L109.652 15.1696L110.092 0H140.368C149.918 0 157.125 1.86139 161.987 5.58416C166.85 9.27762 169.282 14.8178 169.282 22.2047C169.282 29.3571 166.865 34.7801 162.031 38.4735C157.198 42.1377 150.123 43.9697 140.807 43.9697H131.975V54.8303V69.9998H109.652ZM137.819 14.7299H131.975V30.559H137.38C140.368 30.559 142.609 29.9287 144.103 28.6683C145.597 27.4078 146.344 25.3999 146.344 22.6444C146.344 19.8597 145.612 17.8517 144.147 16.6206C142.711 15.3601 140.602 14.7299 137.819 14.7299Z" fill="#38BB94"/>
<path d="M44.8359 69.9998V54.8303L44.8359 15.1696V0H69.7161C82.6984 0 92.5743 2.98994 99.3438 8.96983C106.113 14.9204 109.498 23.6264 109.498 35.0879C109.498 46.52 106.128 55.1967 99.3878 61.1179C92.6475 67.0392 87.5147 69.9998 74.4445 69.9998H44.8359ZM67.6941 55.27H70.1118C75.2695 55.27 78.962 53.7164 81.1892 50.6092C83.4164 47.4727 84.53 42.2549 84.53 34.9559C84.53 27.6863 83.4164 22.4979 81.1892 19.3907C78.962 16.2835 75.2695 14.7299 70.1118 14.7299H67.6941V55.27Z" fill="#38BB94"/>
<path d="M0 69.9998V54.8303H11.0025V15.1696H0V0H44.8365V15.1696H33.834V54.8303H44.8365V69.9998H0Z" fill="#38BB94"/>
</mask>
<g mask="url(#mask0_708_80)">
<path fill-rule="evenodd" clip-rule="evenodd" d="M129.02 0H132.832V69.9998H129.02V0ZM-0.152344 0.000205154H5.03283V70H-0.152344V0.000205154ZM44.8359 0.000205154H50.0211V70H44.8359V0.000205154ZM114.99 0.000205154H109.5V70H114.99V0.000205154ZM6.25 0.000205154H10.9777V70H6.25V0.000205154ZM55.9698 0.000205154H51.2422V70H55.9698V0.000205154ZM116.359 0.000205154H120.782V70H116.359V0.000205154ZM17.2311 0.000205154H12.9609V70H17.2311V0.000205154ZM57.9531 0.000205154H62.2233V70H57.9531V0.000205154ZM126.735 0.000205154H122.617V70H126.735V0.000205154ZM19.0625 0.000205154H23.0276V70H19.0625V0.000205154ZM68.0159 0.000205154H64.0508V70H68.0159V0.000205154ZM27.9057 0.000205154H24.7031V70H27.9057V0.000205154ZM70.1523 0.000205154H73.3549V70H70.1523V0.000205154ZM138.628 0.000205154H135.578V70H138.628V0.000205154ZM30.5 0.000205154H32.9401V70H30.5V0.000205154ZM78.3854 0.000205154H75.9453V70H78.3854V0.000205154ZM141.984 0.000205154H144.424V70H141.984V0.000205154ZM38.2793 0.000205154H36.4492V70H38.2793V0.000205154ZM81.8945 0.000205154H83.7246V70H81.8945V0.000205154ZM150.526 0.000205154H148.391V70H150.526V0.000205154ZM42.0898 0.000205154H43.6149V70H42.0898V0.000205154ZM89.0641 0.000205154H87.5391V70H89.0641V0.000205154ZM92.5705 0H93.7905V69.9998H92.5705V0ZM98.8213 0.000205154H97.9062V70H98.8213V0.000205154ZM103.246 0H103.856V69.9998H103.246V0ZM108.278 0.000205154H107.668V70H108.278V0.000205154ZM155.402 0.000205154H157.232V70H155.402V0.000205154ZM163.333 0.000205154H161.961V70H163.333V0.000205154ZM168.211 0.000205154H169.583V70H168.211V0.000205154ZM171.415 0.000205154H170.5V70H171.415V0.000205154Z" fill="#1C1C1E"/>
</g>
<path d="M181.545 33.6336H183.483V22.2416H181.545V33.6336Z" fill="#1C1C1E"/>
<path d="M186.346 33.6336H188.284V25.595H188.316L193.811 33.6336H195.781V22.2416H193.859V30.4246H193.827L188.268 22.2416H186.346V33.6336Z" fill="#1C1C1E"/>
<path d="M200.903 33.6336H202.841V23.9745H206.109V22.2416H197.683V23.9745H200.903V33.6336Z" fill="#1C1C1E"/>
<path d="M207.997 33.6336H215.494V31.9007H209.935V28.8522H214.149V27.1193H209.935V23.9745H215.158V22.2416H207.997V33.6336Z" fill="#1C1C1E"/>
<path d="M222.512 33.7298C224.258 33.7298 225.924 33.1683 226.965 32.3018V27.5525H222.256V29.2854H225.043V31.2108C224.274 31.7242 223.425 31.9649 222.512 31.9649C220.237 31.9649 218.795 30.232 218.795 27.9536C218.795 25.4827 220.381 23.9424 222.432 23.9424C223.713 23.9424 224.739 24.4077 225.524 25.1779L226.885 23.9905C225.7 22.7069 224.034 22.1133 222.448 22.1133C218.94 22.1133 216.777 24.6002 216.777 27.9536C216.777 31.5638 219.244 33.7298 222.512 33.7298Z" fill="#1C1C1E"/>
<path d="M229.445 33.6336H231.383V29.5742H232.905L235.629 33.6336H237.951L235.004 29.3816C236.67 28.9003 237.535 27.713 237.535 25.932C237.535 23.814 236.349 22.2416 233.642 22.2416H229.445V33.6336ZM231.383 27.8253V23.9745H233.354C234.748 23.9745 235.532 24.6965 235.532 25.8999C235.532 27.023 234.78 27.8253 233.226 27.8253H231.383Z" fill="#1C1C1E"/>
<path d="M238.98 33.6336H240.998L241.847 31.1787H246.493L247.358 33.6336H249.376L245.115 22.2416H243.225L238.98 33.6336ZM242.44 29.51L244.154 24.5682H244.186L245.916 29.51H242.44Z" fill="#1C1C1E"/>
<path d="M252.309 33.6336H254.247V23.9745H257.515V22.2416H249.089V23.9745H252.309V33.6336Z" fill="#1C1C1E"/>
<path d="M259.467 33.6336H261.406V22.2416H259.467V33.6336Z" fill="#1C1C1E"/>
<path d="M269.507 33.7619C272.791 33.7619 275.242 31.4033 275.242 27.9376C275.242 24.4558 272.791 22.1133 269.507 22.1133C266.095 22.1133 263.756 24.5842 263.756 27.9376C263.756 31.291 266.095 33.7619 269.507 33.7619ZM269.507 31.9488C267.28 31.9488 265.759 30.1678 265.759 27.9376C265.759 25.7074 267.28 23.9264 269.507 23.9264C271.606 23.9264 273.224 25.595 273.224 27.9376C273.224 30.2641 271.606 31.9488 269.507 31.9488Z" fill="#1C1C1E"/>
<path d="M277.519 33.6336H279.458V25.595H279.49L284.984 33.6336H286.955V22.2416H285.032V30.4246H285L279.442 22.2416H277.519V33.6336Z" fill="#1C1C1E"/>
<path d="M181.48 51.1425H185.149C188.801 51.1425 191.012 48.816 191.012 45.4626C191.012 42.0932 188.705 39.7506 185.101 39.7506H181.48V51.1425ZM183.419 49.4097V41.4835H185.133C187.424 41.4835 189.01 43.1521 189.01 45.4626C189.01 47.7249 187.44 49.4097 185.037 49.4097H183.419Z" fill="#1C1C1E"/>
<path d="M193.34 51.1425H195.279V39.7506H193.34V51.1425Z" fill="#1C1C1E"/>
<path d="M201.538 51.2709C203.364 51.2709 205.462 50.2119 205.462 47.8533C205.462 45.6551 203.892 45.1257 201.938 44.3555C200.56 43.826 199.791 43.5372 199.807 42.7029C199.823 41.8525 200.528 41.3711 201.409 41.3711C202.178 41.3711 203.091 41.7723 204.021 42.5424L205.174 41.0182C204.021 40.1036 202.755 39.6222 201.409 39.6222C199.439 39.6222 197.805 41.0182 197.805 42.7991C197.805 44.885 199.519 45.6551 201.249 46.2649C202.691 46.7783 203.444 47.0992 203.444 48.094C203.444 48.9283 202.803 49.4738 201.554 49.4738C200.576 49.4738 199.455 48.9764 198.638 47.9817L197.42 49.4738C198.606 50.7093 200.08 51.2709 201.538 51.2709Z" fill="#1C1C1E"/>
<path d="M209.726 51.1425H211.664V41.4835H214.932V39.7506H206.506V41.4835H209.726V51.1425Z" fill="#1C1C1E"/>
<path d="M216.82 51.1425H218.759V47.0831H220.281L223.004 51.1425H225.327L222.379 46.8906C224.045 46.4093 224.91 45.2219 224.91 43.4409C224.91 41.323 223.725 39.7506 221.017 39.7506H216.82V51.1425ZM218.759 45.3342V41.4835H220.729C222.123 41.4835 222.908 42.2055 222.908 43.4089C222.908 44.532 222.155 45.3342 220.601 45.3342H218.759Z" fill="#1C1C1E"/>
<path d="M227.444 51.1425H229.383V39.7506H227.444V51.1425Z" fill="#1C1C1E"/>
<path d="M232.245 51.1425H236.747C239.262 51.1425 240.479 49.8268 240.479 48.0138C240.479 46.4413 239.55 45.4466 238.221 45.1257V45.1096C239.39 44.6443 239.903 43.5853 239.903 42.5264C239.903 40.6652 238.541 39.7506 236.202 39.7506H232.245V51.1425ZM234.184 44.4678V41.4835L235.994 41.4674C237.324 41.4674 237.932 42.0611 237.932 42.9596C237.932 44.0346 237.147 44.4678 236.058 44.4678H234.184ZM234.184 49.4097V46.1365H236.202C237.708 46.1365 238.461 46.7943 238.461 47.8052C238.461 48.8802 237.708 49.4097 236.507 49.4097H234.184Z" fill="#1C1C1E"/>
<path d="M246.99 51.2709C249.826 51.2709 251.54 49.4097 251.54 46.4574V39.7506H249.601V46.313C249.601 48.2705 248.512 49.4418 246.99 49.4418C245.356 49.4418 244.395 48.1261 244.395 46.313V39.7506H242.473V46.4574C242.473 49.522 244.299 51.2709 246.99 51.2709Z" fill="#1C1C1E"/>
<path d="M256.486 51.1425H258.424V41.4835H261.692V39.7506H253.266V41.4835H256.486V51.1425Z" fill="#1C1C1E"/>
<path d="M263.644 51.1425H265.583V39.7506H263.644V51.1425Z" fill="#1C1C1E"/>
<path d="M273.684 51.2709C276.968 51.2709 279.419 48.9123 279.419 45.4466C279.419 41.9648 276.968 39.6222 273.684 39.6222C270.272 39.6222 267.933 42.0932 267.933 45.4466C267.933 48.8 270.272 51.2709 273.684 51.2709ZM273.684 49.4578C271.457 49.4578 269.935 47.6768 269.935 45.4466C269.935 43.2163 271.457 41.4353 273.684 41.4353C275.783 41.4353 277.401 43.104 277.401 45.4466C277.401 47.7731 275.783 49.4578 273.684 49.4578Z" fill="#1C1C1E"/>
<path d="M281.696 51.1425H283.635V43.104H283.667L289.161 51.1425H291.132V39.7506H289.209V47.9335H289.177L283.618 39.7506H281.696V51.1425Z" fill="#1C1C1E"/>
<path d="M181.48 68.6515H183.419V64.5921H185.373C187.824 64.5921 189.49 63.4208 189.49 60.9499C189.49 58.832 188.321 57.2596 185.597 57.2596H181.48V68.6515ZM183.419 62.8432V58.9924H185.325C186.719 58.9924 187.488 59.7144 187.488 60.9178C187.488 62.041 186.767 62.8432 185.181 62.8432H183.419Z" fill="#1C1C1E"/>
<path d="M191.555 68.6515H193.494V64.5921H195.015L197.739 68.6515H200.062L197.114 64.3996C198.78 63.9182 199.645 62.7309 199.645 60.9499C199.645 58.832 198.46 57.2596 195.752 57.2596H191.555V68.6515ZM193.494 62.8432V58.9924H195.464C196.858 58.9924 197.643 59.7144 197.643 60.9178C197.643 62.041 196.89 62.8432 195.336 62.8432H193.494Z" fill="#1C1C1E"/>
<path d="M206.947 68.7798C210.231 68.7798 212.682 66.4212 212.682 62.9555C212.682 59.4738 210.231 57.1312 206.947 57.1312C203.534 57.1312 201.196 59.6021 201.196 62.9555C201.196 66.3089 203.534 68.7798 206.947 68.7798ZM206.947 66.9668C204.72 66.9668 203.198 65.1858 203.198 62.9555C203.198 60.7253 204.72 58.9443 206.947 58.9443C209.045 58.9443 210.663 60.613 210.663 62.9555C210.663 65.282 209.045 66.9668 206.947 66.9668Z" fill="#1C1C1E"/>
<path d="M216.557 68.7477C219.024 68.7477 219.953 67.2556 219.953 64.7526V57.2596H218.015V64.7365C218.015 66.3571 217.374 66.9186 216.477 66.9186C215.772 66.9186 215.051 66.4052 214.635 65.9078L213.545 67.3197C214.282 68.2824 215.484 68.7477 216.557 68.7477Z" fill="#1C1C1E"/>
<path d="M222.562 68.6515H230.059V66.9186H224.5V63.8701H228.713V62.1372H224.5V58.9924H229.722V57.2596H222.562V68.6515Z" fill="#1C1C1E"/>
<path d="M237.077 68.7477C239.079 68.7477 240.585 67.8171 241.562 66.5977L240.136 65.3783C239.415 66.2768 238.358 66.9347 237.077 66.9347C234.914 66.9347 233.36 65.3302 233.36 62.9876C233.36 60.5809 234.882 58.9603 237.045 58.9603C238.246 58.9603 239.255 59.4738 240.104 60.5167L241.53 59.3133C240.345 57.8532 238.711 57.1312 237.045 57.1312C233.392 57.1312 231.342 59.7465 231.342 62.9876C231.342 66.7261 233.985 68.7477 237.077 68.7477Z" fill="#1C1C1E"/>
<path d="M245.864 68.6515H247.802V58.9924H251.07V57.2596H242.644V58.9924H245.864V68.6515Z" fill="#1C1C1E"/>
<path d="M256.354 68.7798C258.18 68.7798 260.279 67.7209 260.279 65.3623C260.279 63.1641 258.709 62.6346 256.755 61.8645C255.377 61.335 254.608 61.0462 254.624 60.2118C254.64 59.3615 255.345 58.8801 256.226 58.8801C256.995 58.8801 257.908 59.2812 258.837 60.0514L259.991 58.5271C258.837 57.6126 257.572 57.1312 256.226 57.1312C254.256 57.1312 252.622 58.5271 252.622 60.3081C252.622 62.3939 254.336 63.1641 256.066 63.7738C257.508 64.2873 258.261 64.6082 258.261 65.6029C258.261 66.4373 257.62 66.9828 256.37 66.9828C255.393 66.9828 254.272 66.4854 253.455 65.4906L252.237 66.9828C253.423 68.2183 254.896 68.7798 256.354 68.7798Z" fill="#1C1C1E"/>
</svg>
