<svg width="238" height="160" viewBox="0 0 238 160" fill="none" xmlns="http://www.w3.org/2000/svg">
<g filter="url(#filter0_b_707_101)">
<path d="M150.259 38.0298L209.511 71.7602L150.553 105.999L127.939 119.132L61.9849 159L30.2966 140.953L1.96875 124.82L69.2882 84.7851L91.9505 71.7602L32.8308 34.7017L61.9849 17.8509L65.0066 16.1044L91.139 1L150.259 38.0298Z" fill="black" fill-opacity="0.01"/>
</g>
<path d="M91.9505 71.7602L32.8308 34.7017L61.9849 17.8509L65.0066 16.1044M91.9505 71.7602L150.553 105.999M91.9505 71.7602L69.2882 84.7851M91.9505 71.7602L121.105 54.895M150.259 38.0298L209.511 71.7602L150.553 105.999M150.259 38.0298L91.139 1L65.0066 16.1044M150.259 38.0298L121.105 54.895M150.553 105.999L127.939 119.132M127.939 119.132L61.9849 159L30.2966 140.953M127.939 119.132L97.1038 101.075M69.2882 84.7851L1.96875 124.82L30.2966 140.953M69.2882 84.7851L97.1038 101.075M30.2966 140.953L97.1038 101.075M121.105 54.895L65.0066 16.1044" stroke="black" stroke-linecap="round"/>
<g filter="url(#filter1_b_707_101)">
<path d="M68.1577 122.659L38.1211 104.332V89.0589L60.6486 76.8407L68.1577 55.4588L119.22 26.4406L149.257 44.7679V79.8953L75.6669 124.186L68.1577 122.659Z" fill="#F5F5F5"/>
</g>
<path d="M38.1211 88.4277V102.763L68.796 120.406M38.1211 88.4277L60.8432 75.7468M38.1211 88.4277L68.796 105.519M60.8432 75.7468L68.796 55.347M60.8432 75.7468L92.0862 91.7358M68.796 55.347L98.9028 71.336L92.0862 91.7358M68.796 55.347L120.489 27.7797L150.596 44.32M92.0862 91.7358L68.796 105.519M68.796 105.519V120.406M68.796 120.406L75.6126 121.508L85.8376 115.995M101.088 107.969L119.353 97.4068M129.057 91.7358L119.353 97.4068M143.777 83.4348L150.596 79.0548V44.32M150.596 44.32L146.051 46.746M98.9028 88.4277L105.151 68.5793L119.353 60.9983M98.9028 88.4277L119.353 77.4008M98.9028 88.4277L98.1435 104.044M119.353 77.4008V60.9983M119.353 77.4008V97.4068M119.353 60.9983L125.033 57.9659M125.033 57.9659V74.0927L146.051 62.5145V46.746M125.033 57.9659L146.051 46.746M48.3461 97.8006V105.519M52.8905 100.557V108.276M56.8669 102.763V110.482M69.1932 101.099L83.423 92.2671M59.8702 106.006V110.913L65.2678 113.857V108.95L59.8702 106.006ZM40.2429 95.2112V100.118L45.6404 103.062V98.1553L40.2429 95.2112Z" stroke="black" stroke-linecap="round"/>
<path d="M98.8743 104.636C100.271 105.629 101.003 107.367 100.987 109.454C100.971 111.538 100.204 113.921 98.6629 116.091C97.1221 118.26 95.1246 119.77 93.1616 120.471C91.1967 121.174 89.3146 121.055 87.9174 120.063C86.5202 119.071 85.7886 117.332 85.8046 115.246C85.8206 113.161 86.588 110.778 88.1287 108.609C89.6695 106.439 91.667 104.93 93.6301 104.228C95.5949 103.526 97.4771 103.644 98.8743 104.636Z" stroke="black"/>
<path d="M141.602 79.5698C143.017 80.5745 143.771 82.3036 143.786 84.3555C143.802 86.4066 143.076 88.7392 141.577 90.8492C140.078 92.9592 138.115 94.4137 136.173 95.0742C134.231 95.735 132.35 95.5927 130.935 94.588C129.521 93.5833 128.767 91.8542 128.751 89.8022C128.735 87.7511 129.462 85.4186 130.96 83.3086C132.459 81.1986 134.422 79.7441 136.364 79.0835C138.307 78.4227 140.188 78.5651 141.602 79.5698Z" stroke="black"/>
<defs>
<filter id="filter0_b_707_101" x="-8.03125" y="-9" width="227.543" height="178" filterUnits="userSpaceOnUse" color-interpolation-filters="sRGB">
<feFlood flood-opacity="0" result="BackgroundImageFix"/>
<feGaussianBlur in="BackgroundImageFix" stdDeviation="5"/>
<feComposite in2="SourceAlpha" operator="in" result="effect1_backgroundBlur_707_101"/>
<feBlend mode="normal" in="SourceGraphic" in2="effect1_backgroundBlur_707_101" result="shape"/>
</filter>
<filter id="filter1_b_707_101" x="28.1211" y="16.4406" width="131.137" height="117.746" filterUnits="userSpaceOnUse" color-interpolation-filters="sRGB">
<feFlood flood-opacity="0" result="BackgroundImageFix"/>
<feGaussianBlur in="BackgroundImageFix" stdDeviation="5"/>
<feComposite in2="SourceAlpha" operator="in" result="effect1_backgroundBlur_707_101"/>
<feBlend mode="normal" in="SourceGraphic" in2="effect1_backgroundBlur_707_101" result="shape"/>
</filter>
</defs>
</svg>
