<svg width="237" height="158" viewBox="0 0 237 158" fill="none" xmlns="http://www.w3.org/2000/svg">
<path d="M35.404 91.83H7.18019M35.404 91.83V77.4713M35.404 91.83H63.9785M7.18019 91.83V77.4713M7.18019 91.83C5.0762 91.83 4.90062 95.9072 7.3555 95.9072H81.3412C86.8252 95.9072 91.6818 92.3263 93.3586 87.0465L109.865 35.0709C110.518 33.0176 112.406 31.6251 114.539 31.6251H120.426M7.18019 44.3222H35.404M7.18019 44.3222V58.5036M7.18019 44.3222C2.79624 44.145 3.49771 38.1179 7.3555 38.1179H104.941M35.404 44.3222V58.5036M35.404 44.3222H63.9785M35.404 77.4713V58.5036M35.404 77.4713H63.9785M35.404 77.4713H7.18019M35.404 58.5036H7.18019M35.404 58.5036H63.9785M63.9785 44.3222H102.896M63.9785 44.3222V58.5036M102.896 44.3222L98.5525 58.5036M102.896 44.3222L104.941 38.1179M63.9785 91.83H80.9132C85.3327 91.83 89.2371 88.9196 90.5445 84.6506L92.7433 77.4713M63.9785 91.83V77.4713M63.9785 58.5036V77.4713M63.9785 58.5036H98.5525M63.9785 77.4713H92.7433M7.18019 77.4713V58.5036M92.7433 77.4713L98.5525 58.5036M120.426 27.8363H114.142C110.671 27.8363 107.59 30.0822 106.492 33.412L104.941 38.1179M120.426 27.8363C120.718 26.8909 122.705 25 128.315 25H136.905C140.411 25 141.287 28.8999 139.71 31.9134C138.503 34.218 132.172 33.6861 127.263 33.8634C125.337 33.9608 121.777 33.5848 120.426 31.6251M120.426 27.8363C120.251 28.0726 119.9 28.8644 119.9 30.1408C119.95 30.7151 120.138 31.2063 120.426 31.6251M88.8199 93.4254L92.7678 102.081C94.7114 106.311 91.6571 111.152 87.0445 111.152L73.2652 111.152L71.1366 122.757C70.7179 125.039 67.5012 125.09 67.0127 122.821L64.5 111.152L29.0933 111.152L26.9647 122.757C26.546 125.039 23.3294 125.09 22.8409 122.821L20.3282 111.152H2.97314C0.342586 111.152 0.341988 107.075 2.97314 107.075H87.0057C88.5356 107.075 89.5539 105.476 88.9208 104.068L85.0135 95.3754" stroke="black"/>
<mask id="path-2-inside-1_707_91" fill="white">
<path d="M79 123C79 128.523 74.5228 133 69 133C63.4772 133 59 128.523 59 123C59 117.477 63.4772 113 69 113C74.5228 113 79 117.477 79 123ZM65.7375 123C65.7375 124.802 67.1982 126.263 69 126.263C70.8018 126.263 72.2625 124.802 72.2625 123C72.2625 121.198 70.8018 119.737 69 119.737C67.1982 119.737 65.7375 121.198 65.7375 123Z"/>
</mask>
<path d="M79 123C79 128.523 74.5228 133 69 133C63.4772 133 59 128.523 59 123C59 117.477 63.4772 113 69 113C74.5228 113 79 117.477 79 123ZM65.7375 123C65.7375 124.802 67.1982 126.263 69 126.263C70.8018 126.263 72.2625 124.802 72.2625 123C72.2625 121.198 70.8018 119.737 69 119.737C67.1982 119.737 65.7375 121.198 65.7375 123Z" fill="#F5F5F5" stroke="black" stroke-width="2" mask="url(#path-2-inside-1_707_91)"/>
<mask id="path-3-inside-2_707_91" fill="white">
<path d="M35 123C35 128.523 30.5228 133 25 133C19.4772 133 15 128.523 15 123C15 117.477 19.4772 113 25 113C30.5228 113 35 117.477 35 123ZM21.7375 123C21.7375 124.802 23.1982 126.263 25 126.263C26.8018 126.263 28.2625 124.802 28.2625 123C28.2625 121.198 26.8018 119.737 25 119.737C23.1982 119.737 21.7375 121.198 21.7375 123Z"/>
</mask>
<path d="M35 123C35 128.523 30.5228 133 25 133C19.4772 133 15 128.523 15 123C15 117.477 19.4772 113 25 113C30.5228 113 35 117.477 35 123ZM21.7375 123C21.7375 124.802 23.1982 126.263 25 126.263C26.8018 126.263 28.2625 124.802 28.2625 123C28.2625 121.198 26.8018 119.737 25 119.737C23.1982 119.737 21.7375 121.198 21.7375 123Z" fill="#F5F5F5" stroke="black" stroke-width="2" mask="url(#path-3-inside-2_707_91)"/>
</svg>
