<svg width="260" height="140" viewBox="0 0 260 140" fill="none" xmlns="http://www.w3.org/2000/svg">
<circle cx="70" cy="70" r="69.5" stroke="white"/>
<path d="M138.721 65.7919C139.271 66.6851 139.65 67.5977 139.845 68.5259L139.356 68.6289C139.452 69.083 139.5 69.54 139.5 70C139.5 70.46 139.452 70.917 139.356 71.3711L139.845 71.4741C139.65 72.4023 139.271 73.3149 138.721 74.2082L138.295 73.9458C137.831 74.6984 137.235 75.4436 136.51 76.1783L136.865 76.5296C136.213 77.1906 135.463 77.8382 134.623 78.4709L134.322 78.0714C133.589 78.6234 132.782 79.1655 131.905 79.6962L132.164 80.1239C131.352 80.6153 130.483 81.0959 129.56 81.5647L129.333 81.1188C128.493 81.5453 127.606 81.9625 126.675 82.3697L126.875 82.8278C125.993 83.2134 125.073 83.5896 124.115 83.956L123.936 83.489C123.045 83.8301 122.12 84.1629 121.164 84.4866L121.325 84.9602C120.41 85.2701 119.467 85.5716 118.497 85.8645L118.353 85.3858C117.429 85.6648 116.481 85.9358 115.509 86.1987L115.64 86.6814C114.701 86.9353 113.741 87.1815 112.76 87.4197L112.642 86.9338C111.699 87.1628 110.736 87.3844 109.756 87.5983L109.862 88.0868C108.909 88.2948 107.938 88.4955 106.951 88.6887L106.855 88.198C105.899 88.385 104.928 88.565 103.942 88.7377L104.028 89.2302C103.065 89.3989 102.087 89.5608 101.097 89.7154L101.02 89.2214C100.055 89.372 99.0779 89.5157 98.0885 89.6525L98.157 90.1478C97.1861 90.282 96.2037 90.4095 95.2104 90.53L95.1501 90.0337C94.1788 90.1516 93.197 90.2628 92.2052 90.3673L92.2576 90.8645C91.281 90.9674 90.2948 91.0637 89.2995 91.1532L89.2547 90.6552C88.2782 90.7431 87.2929 90.8244 86.2992 90.8991L86.3367 91.3977C85.3556 91.4714 84.3665 91.5386 83.3698 91.5992L83.3395 91.1001C82.3588 91.1597 81.3709 91.2129 80.376 91.2594L80.3994 91.7589C79.4161 91.8049 78.4262 91.8445 77.43 91.8775L77.4134 91.3778C76.4322 91.4103 75.4449 91.4365 74.4519 91.4561L74.4618 91.956C73.477 91.9755 72.4867 91.9886 71.4913 91.9951L71.488 91.4951C70.9933 91.4984 70.4972 91.5 70 91.5C69.5028 91.5 69.0067 91.4984 68.512 91.4951L68.5087 91.9951C67.5133 91.9886 66.523 91.9755 65.5382 91.956L65.5481 91.4561C64.5551 91.4365 63.5678 91.4103 62.5866 91.3778L62.57 91.8775C61.5738 91.8445 60.5839 91.8049 59.6006 91.7589L59.624 91.2594C58.6291 91.2129 57.6412 91.1597 56.6605 91.1001L56.6302 91.5992C55.6335 91.5386 54.6444 91.4714 53.6633 91.3977L53.7008 90.8991C52.7071 90.8244 51.7218 90.7431 50.7453 90.6552L50.7005 91.1532C49.7052 91.0637 48.719 90.9674 47.7424 90.8645L47.7948 90.3673C46.803 90.2628 45.8211 90.1516 44.8499 90.0337L44.7896 90.53C43.7963 90.4095 42.8139 90.282 41.843 90.1478L41.9115 89.6525C40.9221 89.5157 39.9449 89.372 38.9804 89.2214L38.9033 89.7154C37.9125 89.5608 36.935 89.3989 35.9715 89.2302L36.0578 88.7377C35.0719 88.565 34.1007 88.385 33.1452 88.198L33.0491 88.6887C32.062 88.4955 31.0913 88.2948 30.1379 88.0868L30.2444 87.5983C29.2636 87.3844 28.3013 87.1628 27.3583 86.9338L27.2403 87.4197C26.2593 87.1815 25.2989 86.9353 24.3602 86.6814L24.4907 86.1987C23.5189 85.9358 22.5707 85.6648 21.6472 85.3858L21.5026 85.8645C20.533 85.5716 19.5901 85.2701 18.6753 84.9602L18.8357 84.4866C17.8798 84.1629 16.9553 83.8301 16.0635 83.489L15.8849 83.956C14.9273 83.5896 14.0066 83.2134 13.1246 82.8278L13.3249 82.3697C12.3936 81.9625 11.5068 81.5453 10.6666 81.1188L10.4403 81.5647C9.51673 81.0958 8.64764 80.6153 7.83582 80.1239L8.09472 79.6962C7.21792 79.1655 6.41131 78.6234 5.67789 78.0714L5.37721 78.4709C4.53666 77.8382 3.78743 77.1906 3.13469 76.5296L3.49045 76.1783C2.76495 75.4436 2.16866 74.6984 1.70483 73.9458L1.27918 74.2081C0.728635 73.3149 0.350036 72.4023 0.154638 71.4741L0.643916 71.3711C0.548349 70.917 0.5 70.46 0.5 70C0.5 69.54 0.548349 69.083 0.643918 68.6289L0.15464 68.5259C0.350038 67.5977 0.728638 66.6851 1.27918 65.7918L1.70483 66.0542C2.16866 65.3016 2.76496 64.5564 3.49046 63.8217L3.1347 63.4704C3.78744 62.8094 4.53667 62.1618 5.37721 61.5291L5.67789 61.9286C6.41131 61.3766 7.21792 60.8345 8.09473 60.3038L7.83582 59.8761C8.64765 59.3847 9.51673 58.9041 10.4403 58.4353L10.6666 58.8812C11.5068 58.4547 12.3936 58.0375 13.3249 57.6303L13.1246 57.1722C14.0066 56.7866 14.9273 56.4104 15.8849 56.044L16.0635 56.511C16.9553 56.1699 17.8798 55.8371 18.8357 55.5134L18.6753 55.0398C19.5901 54.7299 20.533 54.4284 21.5026 54.1355L21.6472 54.6142C22.5707 54.3352 23.5189 54.0642 24.4908 53.8013L24.3602 53.3186C25.2989 53.0647 26.2593 52.8185 27.2404 52.5803L27.3583 53.0661C28.3013 52.8372 29.2636 52.6156 30.2444 52.4017L30.1379 51.9132C31.0913 51.7052 32.062 51.5045 33.0491 51.3113L33.1452 51.802C34.1007 51.615 35.0719 51.435 36.0578 51.2623L35.9715 50.7698C36.935 50.6011 37.9125 50.4392 38.9033 50.2846L38.9804 50.7786C39.9449 50.628 40.9221 50.4843 41.9115 50.3475L41.843 49.8522C42.8139 49.718 43.7963 49.5905 44.7896 49.47L44.8499 49.9663C45.8212 49.8484 46.803 49.7372 47.7948 49.6327L47.7424 49.1355C48.719 49.0326 49.7052 48.9363 50.7005 48.8468L50.7453 49.3448C51.7218 49.2569 52.7071 49.1756 53.7008 49.1009L53.6633 48.6023C54.6444 48.5286 55.6335 48.4614 56.6302 48.4008L56.6605 48.8999C57.6412 48.8403 58.6291 48.7871 59.624 48.7406L59.6006 48.2411C60.5839 48.1951 61.5738 48.1555 62.57 48.1225L62.5866 48.6222C63.5678 48.5897 64.5551 48.5635 65.5481 48.5439L65.5382 48.044C66.523 48.0245 67.5133 48.0114 68.5087 48.0049L68.512 48.5049C69.0067 48.5016 69.5028 48.5 70 48.5C70.4972 48.5 70.9933 48.5016 71.488 48.5049L71.4913 48.0049C72.4867 48.0114 73.477 48.0245 74.4618 48.044L74.4519 48.5439C75.4449 48.5635 76.4322 48.5897 77.4134 48.6222L77.43 48.1225C78.4262 48.1555 79.4161 48.1951 80.3994 48.2411L80.376 48.7406C81.3709 48.7871 82.3588 48.8403 83.3395 48.8999L83.3698 48.4008C84.3665 48.4614 85.3556 48.5286 86.3367 48.6023L86.2992 49.1009C87.2929 49.1756 88.2782 49.2569 89.2547 49.3448L89.2995 48.8468C90.2948 48.9363 91.281 49.0326 92.2576 49.1355L92.2052 49.6327C93.197 49.7372 94.1788 49.8484 95.1501 49.9663L95.2104 49.47C96.2037 49.5905 97.1861 49.718 98.157 49.8522L98.0885 50.3475C99.0779 50.4843 100.055 50.628 101.02 50.7786L101.097 50.2846C102.088 50.4392 103.065 50.6011 104.028 50.7698L103.942 51.2623C104.928 51.435 105.899 51.615 106.855 51.802L106.951 51.3113C107.938 51.5045 108.909 51.7052 109.862 51.9132L109.756 52.4017C110.736 52.6156 111.699 52.8372 112.642 53.0662L112.76 52.5803C113.741 52.8185 114.701 53.0647 115.64 53.3186L115.509 53.8013C116.481 54.0642 117.429 54.3352 118.353 54.6142L118.497 54.1355C119.467 54.4284 120.41 54.7299 121.325 55.0398L121.164 55.5134C122.12 55.8371 123.045 56.1699 123.936 56.511L124.115 56.044C125.073 56.4104 125.993 56.7866 126.875 57.1722L126.675 57.6303C127.606 58.0375 128.493 58.4547 129.333 58.8812L129.56 58.4353C130.483 58.9042 131.352 59.3847 132.164 59.8761L131.905 60.3038C132.782 60.8345 133.589 61.3766 134.322 61.9286L134.623 61.5291C135.463 62.1618 136.213 62.8094 136.865 63.4704L136.51 63.8217C137.235 64.5564 137.831 65.3016 138.295 66.0542L138.721 65.7919Z" stroke="white" stroke-dasharray="3 3"/>
<path d="M114.5 70C114.5 89.2486 109.483 106.652 101.399 119.227C93.3115 131.808 82.1986 139.5 70 139.5C57.8014 139.5 46.6885 131.808 38.6008 119.227C30.5166 106.652 25.5 89.2486 25.5 70C25.5 50.7514 30.5166 33.3484 38.6008 20.7729C46.6885 8.19209 57.8014 0.5 70 0.5C82.1986 0.5 93.3115 8.19209 101.399 20.7729C109.483 33.3484 114.5 50.7514 114.5 70Z" stroke="white"/>
<path d="M86.5 70C86.5 89.3023 84.5995 106.761 81.5349 119.379C80.0017 125.693 78.1837 130.767 76.1836 134.25C74.1618 137.771 72.0541 139.5 70 139.5C67.9459 139.5 65.8382 137.771 63.8164 134.25C61.8163 130.767 59.9983 125.693 58.4651 119.379C55.4005 106.761 53.5 89.3023 53.5 70C53.5 50.6977 55.4005 33.2392 58.4651 20.6205C59.9983 14.3073 61.8163 9.23337 63.8164 5.74991C65.8382 2.22873 67.9459 0.5 70 0.5C72.0541 0.5 74.1618 2.22873 76.1836 5.74991C78.1837 9.23337 80.0017 14.3073 81.5349 20.6205C84.5995 33.2392 86.5 50.6977 86.5 70Z" stroke="white"/>
<circle cx="140" cy="70" r="5" fill="white"/>
</svg>
