<svg width="261" height="140" viewBox="0 0 261 140" fill="none" xmlns="http://www.w3.org/2000/svg">
<path d="M160.4 1H35.6C26.9844 1 20 7.84365 20 16.2857V92.7143C20 101.156 26.9844 108 35.6 108H160.4C169.016 108 176 101.156 176 92.7143V16.2857C176 7.84365 169.016 1 160.4 1Z" stroke="white" stroke-linecap="round" stroke-linejoin="round"/>
<path d="M67 139H129" stroke="white" stroke-linecap="round" stroke-linejoin="round"/>
<path d="M98 108V139" stroke="white" stroke-linecap="round" stroke-linejoin="round"/>
<path d="M19.2 83C24.2258 83 28.3 78.3829 28.3 72.6875C28.3 66.9921 24.2258 62.375 19.2 62.375C14.1742 62.375 10.1 66.9921 10.1 72.6875C10.1 78.3829 14.1742 83 19.2 83Z" fill="#121212"/>
<path d="M67.7333 83C72.7591 83 76.8333 78.3829 76.8333 72.6875C76.8333 66.9921 72.7591 62.375 67.7333 62.375C62.7075 62.375 58.6333 66.9921 58.6333 72.6875C58.6333 78.3829 62.7075 83 67.7333 83Z" fill="#121212"/>
<path d="M76.8333 72.6875H88.9667C90.7867 72.6875 92 71.3125 92 69.25V62.375C92 54.8125 86.54 48.625 79.8667 48.625H70.7667L59.24 32.8125C56.8133 29.7187 53.4767 28 49.8367 28H26.7833C22.2333 28 17.9867 31.0937 15.8633 35.5625L10.1 48.625H7.06667C3.73 48.625 1 51.7187 1 55.5V69.25C1 71.3125 2.21333 72.6875 4.03333 72.6875H10.1" fill="#121212"/>
<path d="M28.3 72.6875C28.3 78.3829 24.2258 83 19.2 83C14.1742 83 10.1 78.3829 10.1 72.6875M28.3 72.6875C28.3 66.9921 24.2258 62.375 19.2 62.375C14.1742 62.375 10.1 66.9921 10.1 72.6875M28.3 72.6875H58.6333M10.1 72.6875H4.03333C2.21333 72.6875 1 71.3125 1 69.25V55.5C1 51.7187 3.73 48.625 7.06667 48.625H10.1M76.8333 72.6875C76.8333 78.3829 72.7591 83 67.7333 83C62.7075 83 58.6333 78.3829 58.6333 72.6875M76.8333 72.6875C76.8333 66.9921 72.7591 62.375 67.7333 62.375C62.7075 62.375 58.6333 66.9921 58.6333 72.6875M76.8333 72.6875H88.9667C90.7867 72.6875 92 71.3125 92 69.25V62.375C92 54.8125 86.54 48.625 79.8667 48.625H70.7667M82.9 58.9375H88.9667M10.1 48.625H70.7667M10.1 48.625L15.8633 35.5625C17.9867 31.0937 22.2333 28 26.7833 28H49.8367C53.4767 28 56.8133 29.7187 59.24 32.8125L70.7667 48.625" stroke="white" stroke-miterlimit="10" stroke-linecap="round" stroke-linejoin="round"/>
<path d="M122.2 83C127.226 83 131.3 78.3829 131.3 72.6875C131.3 66.9921 127.226 62.375 122.2 62.375C117.174 62.375 113.1 66.9921 113.1 72.6875C113.1 78.3829 117.174 83 122.2 83Z" fill="#121212"/>
<path d="M170.733 83C175.759 83 179.833 78.3829 179.833 72.6875C179.833 66.9921 175.759 62.375 170.733 62.375C165.708 62.375 161.633 66.9921 161.633 72.6875C161.633 78.3829 165.708 83 170.733 83Z" fill="#121212"/>
<path d="M179.833 72.6875H191.967C193.787 72.6875 195 71.3125 195 69.25V62.375C195 54.8125 189.54 48.625 182.867 48.625H173.767L162.24 32.8125C159.813 29.7187 156.477 28 152.837 28H129.783C125.233 28 120.987 31.0937 118.863 35.5625L113.1 48.625H110.067C106.73 48.625 104 51.7187 104 55.5V69.25C104 71.3125 105.213 72.6875 107.033 72.6875H113.1" fill="#121212"/>
<path d="M131.3 72.6875C131.3 78.3829 127.226 83 122.2 83C117.174 83 113.1 78.3829 113.1 72.6875M131.3 72.6875C131.3 66.9921 127.226 62.375 122.2 62.375C117.174 62.375 113.1 66.9921 113.1 72.6875M131.3 72.6875H161.633M113.1 72.6875H107.033C105.213 72.6875 104 71.3125 104 69.25V55.5C104 51.7187 106.73 48.625 110.067 48.625H113.1M179.833 72.6875C179.833 78.3829 175.759 83 170.733 83C165.708 83 161.633 78.3829 161.633 72.6875M179.833 72.6875C179.833 66.9921 175.759 62.375 170.733 62.375C165.708 62.375 161.633 66.9921 161.633 72.6875M179.833 72.6875H191.967C193.787 72.6875 195 71.3125 195 69.25V62.375C195 54.8125 189.54 48.625 182.867 48.625H173.767M185.9 58.9375H191.967M113.1 48.625H173.767M113.1 48.625L118.863 35.5625C120.987 31.0937 125.233 28 129.783 28H152.837C156.477 28 159.813 29.7187 162.24 32.8125L173.767 48.625" stroke="white" stroke-miterlimit="10" stroke-linecap="round" stroke-linejoin="round"/>
<mask id="mask0_708_50" style="mask-type:alpha" maskUnits="userSpaceOnUse" x="0" y="27" width="196" height="57">
<path d="M19.2 83C24.2258 83 28.3 78.3829 28.3 72.6875C28.3 66.9921 24.2258 62.375 19.2 62.375C14.1742 62.375 10.1 66.9921 10.1 72.6875C10.1 78.3829 14.1742 83 19.2 83Z" fill="#1C1C1E"/>
<path d="M67.7333 83C72.7591 83 76.8333 78.3829 76.8333 72.6875C76.8333 66.9921 72.7591 62.375 67.7333 62.375C62.7075 62.375 58.6333 66.9921 58.6333 72.6875C58.6333 78.3829 62.7075 83 67.7333 83Z" fill="#1C1C1E"/>
<path d="M76.8333 72.6875H88.9667C90.7867 72.6875 92 71.3125 92 69.25V62.375C92 54.8125 86.54 48.625 79.8667 48.625H70.7667L59.24 32.8125C56.8133 29.7187 53.4767 28 49.8367 28H26.7833C22.2333 28 17.9867 31.0937 15.8633 35.5625L10.1 48.625H7.06667C3.73 48.625 1 51.7187 1 55.5V69.25C1 71.3125 2.21333 72.6875 4.03333 72.6875H10.1" fill="#1C1C1E"/>
<path d="M28.3 72.6875C28.3 78.3829 24.2258 83 19.2 83C14.1742 83 10.1 78.3829 10.1 72.6875M28.3 72.6875C28.3 66.9921 24.2258 62.375 19.2 62.375C14.1742 62.375 10.1 66.9921 10.1 72.6875M28.3 72.6875H58.6333M10.1 72.6875H4.03333C2.21333 72.6875 1 71.3125 1 69.25V55.5C1 51.7187 3.73 48.625 7.06667 48.625H10.1M76.8333 72.6875C76.8333 78.3829 72.7591 83 67.7333 83C62.7075 83 58.6333 78.3829 58.6333 72.6875M76.8333 72.6875C76.8333 66.9921 72.7591 62.375 67.7333 62.375C62.7075 62.375 58.6333 66.9921 58.6333 72.6875M76.8333 72.6875H88.9667C90.7867 72.6875 92 71.3125 92 69.25V62.375C92 54.8125 86.54 48.625 79.8667 48.625H70.7667M82.9 58.9375H88.9667M10.1 48.625H70.7667M10.1 48.625L15.8633 35.5625C17.9867 31.0937 22.2333 28 26.7833 28H49.8367C53.4767 28 56.8133 29.7187 59.24 32.8125L70.7667 48.625" stroke="white" stroke-miterlimit="10" stroke-linecap="round" stroke-linejoin="round"/>
<path d="M122.2 83C127.226 83 131.3 78.3829 131.3 72.6875C131.3 66.9921 127.226 62.375 122.2 62.375C117.174 62.375 113.1 66.9921 113.1 72.6875C113.1 78.3829 117.174 83 122.2 83Z" fill="#1C1C1E"/>
<path d="M170.733 83C175.759 83 179.833 78.3829 179.833 72.6875C179.833 66.9921 175.759 62.375 170.733 62.375C165.708 62.375 161.633 66.9921 161.633 72.6875C161.633 78.3829 165.708 83 170.733 83Z" fill="#1C1C1E"/>
<path d="M179.833 72.6875H191.967C193.787 72.6875 195 71.3125 195 69.25V62.375C195 54.8125 189.54 48.625 182.867 48.625H173.767L162.24 32.8125C159.813 29.7187 156.477 28 152.837 28H129.783C125.233 28 120.987 31.0937 118.863 35.5625L113.1 48.625H110.067C106.73 48.625 104 51.7187 104 55.5V69.25C104 71.3125 105.213 72.6875 107.033 72.6875H113.1" fill="#1C1C1E"/>
<path d="M131.3 72.6875C131.3 78.3829 127.226 83 122.2 83C117.174 83 113.1 78.3829 113.1 72.6875M131.3 72.6875C131.3 66.9921 127.226 62.375 122.2 62.375C117.174 62.375 113.1 66.9921 113.1 72.6875M131.3 72.6875H161.633M113.1 72.6875H107.033C105.213 72.6875 104 71.3125 104 69.25V55.5C104 51.7187 106.73 48.625 110.067 48.625H113.1M179.833 72.6875C179.833 78.3829 175.759 83 170.733 83C165.708 83 161.633 78.3829 161.633 72.6875M179.833 72.6875C179.833 66.9921 175.759 62.375 170.733 62.375C165.708 62.375 161.633 66.9921 161.633 72.6875M179.833 72.6875H191.967C193.787 72.6875 195 71.3125 195 69.25V62.375C195 54.8125 189.54 48.625 182.867 48.625H173.767M185.9 58.9375H191.967M113.1 48.625H173.767M113.1 48.625L118.863 35.5625C120.987 31.0937 125.233 28 129.783 28H152.837C156.477 28 159.813 29.7187 162.24 32.8125L173.767 48.625" stroke="white" stroke-miterlimit="10" stroke-linecap="round" stroke-linejoin="round"/>
</mask>
<g mask="url(#mask0_708_50)">
<path d="M160.4 1H35.6C26.9844 1 20 7.84365 20 16.2857V92.7143C20 101.156 26.9844 108 35.6 108H160.4C169.016 108 176 101.156 176 92.7143V16.2857C176 7.84365 169.016 1 160.4 1Z" stroke="white" stroke-linecap="round" stroke-linejoin="round" stroke-dasharray="3 3"/>
</g>
<circle cx="20" cy="49" r="5" fill="white"/>
</svg>
