<svg width="20" height="12" viewBox="0 0 20 12" fill="none" xmlns="http://www.w3.org/2000/svg">
<path d="M2 5.3C1.6134 5.3 1.3 5.6134 1.3 6C1.3 6.3866 1.6134 6.7 2 6.7V5.3ZM18.495 6.49497C18.7683 6.22161 18.7683 5.77839 18.495 5.50503L14.0402 1.05025C13.7668 0.776886 13.3236 0.776886 13.0503 1.05025C12.7769 1.32362 12.7769 1.76684 13.0503 2.0402L17.0101 6L13.0503 9.9598C12.7769 10.2332 12.7769 10.6764 13.0503 10.9497C13.3236 11.2231 13.7668 11.2231 14.0402 10.9497L18.495 6.49497ZM2 6.7H18V5.3H2V6.7Z" fill="black" fill-opacity="0.8"/>
</svg>
