<svg width="110" height="110" viewBox="0 0 110 110" fill="none" xmlns="http://www.w3.org/2000/svg">
<path d="M65 93H45" stroke="white" stroke-width="1.4" stroke-linecap="round" stroke-linejoin="round"/>
<path d="M45.0811 12H38.3846C34.3062 12 31 15.3092 31 19.3913V89.6087C31 93.6908 34.3062 97 38.3846 97H71.6154C75.6938 97 79 93.6908 79 89.6087V19.3913C79 15.3092 75.6938 12 71.6154 12H64.9189M45.0811 12H55H64.9189M45.0811 12H64.9189M45.0811 12L45.9165 13.9684C46.3869 15.0767 47.4742 15.7964 48.6781 15.7964H61.3219C62.5258 15.7964 63.6131 15.0767 64.0835 13.9684L64.9189 12" stroke="white" stroke-width="1.4" stroke-linecap="round" stroke-linejoin="round"/>
<path d="M45 48L39 53.5L45 59" stroke="white" stroke-width="1.4" stroke-miterlimit="10" stroke-linecap="round" stroke-linejoin="round"/>
<path d="M65 48L71 53.5L65 59" stroke="white" stroke-width="1.4" stroke-miterlimit="10" stroke-linecap="round" stroke-linejoin="round"/>
<path d="M59 47L51 63" stroke="white" stroke-width="1.4" stroke-miterlimit="10" stroke-linecap="round" stroke-linejoin="round"/>
</svg>
