<svg width="260" height="140" viewBox="0 0 260 140" fill="none" xmlns="http://www.w3.org/2000/svg">
<rect x="20.5" y="0.5" width="159" height="119" rx="19.5" stroke="white"/>
<rect x="0.5" y="20.5" width="159" height="119" rx="19.5" fill="#121212" stroke="white"/>
<mask id="mask0_708_31" style="mask-type:alpha" maskUnits="userSpaceOnUse" x="0" y="20" width="160" height="120">
<rect y="20" width="160" height="120" rx="20" fill="#D9D9D9"/>
</mask>
<g mask="url(#mask0_708_31)">
<rect x="20.5" y="0.5" width="159" height="119" rx="19.5" stroke="white" stroke-dasharray="3 3"/>
</g>
<circle cx="20" cy="20" r="5" fill="white"/>
<path d="M75.4167 43.75H69.5833C66.3617 43.75 63.75 46.3617 63.75 49.5833V55.4167" stroke="white" stroke-linecap="round" stroke-linejoin="round"/>
<path d="M104.586 43.75H110.419C113.641 43.75 116.253 46.3617 116.253 49.5833V55.4167" stroke="white" stroke-linecap="round" stroke-linejoin="round"/>
<path d="M101.664 58.3342V64.1676" stroke="white" stroke-linecap="round" stroke-linejoin="round"/>
<path d="M78.3359 58.3342V64.1676" stroke="white" stroke-linecap="round" stroke-linejoin="round"/>
<path d="M81.25 81.6658C81.25 81.6658 84.1667 84.5824 90 84.5824C95.8333 84.5824 98.75 81.6658 98.75 81.6658" stroke="white" stroke-linecap="round" stroke-linejoin="round"/>
<path d="M89.3452 57.6558V69.2391C89.3452 70.896 88.0021 72.2391 86.3452 72.2391H85" stroke="white" stroke-linecap="round" stroke-linejoin="round"/>
<path d="M75.4167 96.2509H69.5833C66.3617 96.2509 63.75 93.6393 63.75 90.4176V84.5842" stroke="white" stroke-linecap="round" stroke-linejoin="round"/>
<path d="M104.586 96.2509H110.419C113.641 96.2509 116.253 93.6393 116.253 90.4176V84.5842" stroke="white" stroke-linecap="round" stroke-linejoin="round"/>
</svg>
