<svg width="164" height="68" viewBox="0 0 164 68" fill="none" xmlns="http://www.w3.org/2000/svg">
<mask id="mask0_806_175" style="mask-type:alpha" maskUnits="userSpaceOnUse" x="0" y="0" width="164" height="68">
<path d="M106.223 67.8622L106.223 53.1658L106.223 14.7423L106.648 0.0459595H135.979C145.231 0.0459595 152.213 1.84928 156.924 5.45592C161.635 9.03416 163.991 14.4015 163.991 21.558C163.991 28.4873 161.649 33.7411 156.967 37.3193C152.284 40.8692 145.43 42.6441 136.405 42.6441H127.848V53.1658V67.8622H106.223ZM133.51 14.3163H127.848V29.6517H133.085C135.979 29.6517 138.15 29.0411 139.598 27.8199C141.045 26.5988 141.769 24.6535 141.769 21.984C141.769 19.2861 141.059 17.3408 139.64 16.148C138.25 14.9269 136.206 14.3163 133.51 14.3163Z"/>
<path d="M106.223 67.8622L106.223 53.1658L106.223 14.7423L106.648 0.0459595H135.979C145.231 0.0459595 152.213 1.84928 156.924 5.45592C161.635 9.03416 163.991 14.4015 163.991 21.558C163.991 28.4873 161.649 33.7411 156.967 37.3193C152.284 40.8692 145.43 42.6441 136.405 42.6441H127.848V53.1658V67.8622H106.223ZM133.51 14.3163H127.848V29.6517H133.085C135.979 29.6517 138.15 29.0411 139.598 27.8199C141.045 26.5988 141.769 24.6535 141.769 21.984C141.769 19.2861 141.059 17.3408 139.64 16.148C138.25 14.9269 136.206 14.3163 133.51 14.3163Z"/>
<path d="M43.4375 67.8622V53.1658L43.4375 14.7423V0.0459595H67.541C80.118 0.0459595 89.6856 2.94263 96.2438 8.73598C102.802 14.5009 106.081 22.9353 106.081 34.0393C106.081 45.1148 102.816 53.5208 96.2864 59.2573C89.7566 64.9939 84.784 67.8622 72.1218 67.8622H43.4375ZM65.5821 53.5918H67.9243C72.921 53.5918 76.4982 52.0867 78.6559 49.0764C80.8136 46.0377 81.8924 40.9828 81.8924 33.9115C81.8924 26.8686 80.8136 21.842 78.6559 18.8317C76.4982 15.8215 72.921 14.3163 67.9243 14.3163H65.5821V53.5918Z"/>
<path d="M0 67.8622V53.1658H10.6591V14.7423H0V0.0459595H43.4368V14.7423H32.7778V53.1658H43.4368V67.8622H0Z"/>
</mask>
<g mask="url(#mask0_806_175)">
<path fill-rule="evenodd" clip-rule="evenodd" d="M-0.148438 0.0459595H4.87487V67.8622H-0.148438V0.0459595ZM43.4365 0.0459595H48.4598V67.8622H43.4365V0.0459595ZM111.402 0.0459595H106.084V67.8622H111.402V0.0459595ZM6.05455 0.0459595H10.6346V67.8622H6.05455V0.0459595ZM54.2196 0.0459595H49.6395V67.8622H54.2196V0.0459595ZM112.732 0.0459595H117.016V67.8622H112.732V0.0459595ZM16.6991 0.0459595H12.5622V67.8622H16.6991V0.0459595ZM56.1393 0.0459595H60.2762V67.8622H56.1393V0.0459595ZM122.775 0.0459595H118.786V67.8622H122.775V0.0459595ZM18.4683 0.0459595H22.3097V67.8622H18.4683V0.0459595ZM65.8946 0.0459595H62.0533V67.8622H65.8946V0.0459595ZM124.989 0.0459595H128.683V67.8622H124.989V0.0459595ZM27.0396 0.0459595H23.937V67.8622H27.0396V0.0459595ZM67.9672 0.0459595H71.0698V67.8622H67.9672V0.0459595ZM134.296 0.0459595H131.341V67.8622H134.296V0.0459595ZM29.5462 0.0459595H31.9101V67.8622H29.5462V0.0459595ZM75.9404 0.0459595H73.5764V67.8622H75.9404V0.0459595ZM137.544 0.0459595H139.908V67.8622H137.544V0.0459595ZM37.0846 0.0459595H35.3117V67.8622H37.0846V0.0459595ZM79.3341 0.0459595H81.1071V67.8622H79.3341V0.0459595ZM145.823 0.0459709H143.754V67.8622H145.823V0.0459709ZM40.7725 0.0459595H42.25V67.8622H40.7725V0.0459595ZM86.2802 0.0459595H84.8028V67.8622H86.2802V0.0459595ZM89.6855 0.0459595H90.8674V67.8622H89.6855V0.0459595ZM95.7359 0.0459595H94.8494V67.8622H95.7359V0.0459595ZM100.021 0.0459595H100.612V67.8622H100.021V0.0459595ZM104.901 0.0459595H104.31V67.8622H104.901V0.0459595ZM150.551 0.0459595H152.324V67.8622H150.551V0.0459595ZM158.232 0.0459595H156.903V67.8622H158.232V0.0459595ZM162.957 0.0459595H164.287V67.8622H162.957V0.0459595ZM166.062 0.0459595H165.176V67.8622H166.062V0.0459595Z"/>
</g>
</svg>
